<svg viewBox="0 0 1600 2134" xmlns="http://www.w3.org/2000/svg" xml:space="preserve" style="fill-rule:evenodd;clip-rule:evenodd;stroke-linejoin:round;stroke-miterlimit:2"><path d="M1400 0H200C93.25 0 0 93.25 0 200v1733.33c0 106.667 93.25 200 200 200h1200c106.75 0 200-93.25 200-200V200c0-106.75-93.333-200-200-200ZM266.67 866.667c0-36.667 30-66.667 66.666-66.667H466.67c36.666 0 66.666 30 66.666 66.667V1000c0 36.667-30 66.667-66.666 66.667H333.336c-36.666 0-66.666-30-66.666-66.667V866.667Zm0 400c0-36.667 30-66.667 66.666-66.667H466.67c36.666 0 66.666 30 66.666 66.667V1400c0 36.667-30 66.667-66.666 66.667H333.336c-36.666 0-66.666-30-66.666-66.667v-133.333ZM933.336 1800c0 36.671-29.995 66.667-66.666 66.667H333.336c-36.666 0-66.666-30-66.666-66.667v-133.333c0-36.667 30-66.667 66.666-66.667H866.67c36.671 0 66.666 29.996 66.666 66.667V1800Zm0-400c0 36.671-29.995 66.667-66.666 66.667H733.336c-36.666 0-66.666-30-66.666-66.667v-133.333c0-36.667 30-66.667 66.666-66.667H866.67c36.666 0 66.666 30 66.666 66.667V1400Zm0-400c0 36.667-30 66.667-66.666 66.667H733.336c-36.666 0-66.666-30-66.666-66.667V866.667c0-36.667 30-66.667 66.666-66.667H866.67c36.666 0 66.666 30 66.666 66.667V1000Zm400 800c0 36.671-29.995 66.667-66.666 66.667h-133.334c-36.662 0-66.666-29.996-66.666-66.667v-133.333c0-36.671 30.004-66.667 66.666-66.667h133.334c36.671 0 66.666 29.996 66.666 66.667V1800Zm0-400c0 36.671-29.995 66.667-66.666 66.667h-133.334c-36.662 0-66.666-29.996-66.666-66.667v-133.333c0-36.667 30-66.667 66.666-66.667h133.334c36.666 0 66.666 30 66.666 66.667V1400Zm0-400c0 36.667-30 66.667-66.666 66.667h-133.334c-36.666 0-66.666-30-66.666-66.667V866.667c0-36.667 30-66.667 66.666-66.667h133.334c36.666 0 66.666 30 66.666 66.667V1000Zm0-400c0 36.667-30 66.667-66.666 66.667H333.336c-36.666 0-66.666-30-66.666-66.667V333.333c0-36.666 30-66.666 66.666-66.666h933.334c36.666 0 66.666 30 66.666 66.666V600Z" style="fill:#fff;fill-rule:nonzero"/></svg>