<?xml version="1.0" encoding="UTF-8" standalone="no"?><!DOCTYPE svg PUBLIC "-//W3C//DTD SVG 1.1//EN" "http://www.w3.org/Graphics/SVG/1.1/DTD/svg11.dtd"><svg width="100%" height="100%" viewBox="0 0 2134 2134" version="1.1" xmlns="http://www.w3.org/2000/svg" xmlns:xlink="http://www.w3.org/1999/xlink" xml:space="preserve" xmlns:serif="http://www.serif.com/" style="fill-rule:evenodd;clip-rule:evenodd;stroke-linejoin:round;stroke-miterlimit:2;"><path d="M0,1066.67c0,-589.167 477.5,-1066.67 1066.67,-1066.67c589.166,0 1066.67,477.5 1066.67,1066.67c0,589.166 -477.5,1066.67 -1066.67,1066.67c-589.167,0 -1066.67,-477.5 -1066.67,-1066.67Zm1066.67,466.666c55.416,0 100,-44.583 100,-100l-0,-266.666l266.666,-0c55.417,-0 100,-44.584 100,-100c0,-55.417 -44.583,-100 -100,-100l-266.666,-0l-0,-266.667c-0,-55.417 -44.584,-100 -100,-100c-55.417,0 -100,44.583 -100,100l-0,266.667l-266.667,-0c-55.417,-0 -100,44.583 -100,100c0,55.416 44.583,100 100,100l266.667,-0l-0,266.666c-0,55.417 44.583,100 100,100Z" style="fill:#fff;fill-rule:nonzero;"/></svg>