<?xml version="1.0" encoding="UTF-8" standalone="no"?><!DOCTYPE svg PUBLIC "-//W3C//DTD SVG 1.1//EN" "http://www.w3.org/Graphics/SVG/1.1/DTD/svg11.dtd"><svg width="100%" height="100%" viewBox="0 0 3001 3001" version="1.1" xmlns="http://www.w3.org/2000/svg" xmlns:xlink="http://www.w3.org/1999/xlink" xml:space="preserve" xmlns:serif="http://www.serif.com/" style="fill-rule:evenodd;clip-rule:evenodd;stroke-linejoin:round;stroke-miterlimit:2;"><rect id="minustenred" x="0.722" y="0.21" width="3000" height="3000" style="fill:none;"/><path d="M1500.72,0.21c827.872,-0 1500,672.127 1500,1500c-0,827.872 -672.128,1500 -1500,1500c-827.873,-0 -1500,-672.128 -1500,-1500c-0,-827.873 672.127,-1500 1500,-1500Zm-391.488,1955.7l218.143,-736.084l-114.19,0l171.679,-176.391l255.156,-0l-274.844,912.475l-255.944,0Zm678.054,-802.612c15.75,-46.387 38.588,-76.701 68.514,-90.942c33.076,-13.021 73.764,-19.125 122.065,-18.311l396.91,0c34.651,-0.814 64.051,11.19 88.202,36.011c27.826,26.041 37.013,54.524 27.563,85.449l-208.692,659.18c-4.725,11.8 -11.813,24.821 -21.263,39.062c-9.451,15.462 -21.526,29.907 -36.226,43.335c-15.226,14.242 -33.338,24.821 -54.339,31.738c-21.525,9.766 -46.726,15.259 -75.602,16.48l-409.51,-0c-48.826,-1.221 -83.739,-12.004 -104.74,-32.349c-22.575,-20.345 -28.613,-46.59 -18.112,-78.735l225.23,-690.918Zm84.264,626.831l150.416,0l79.54,-228.882l-207.118,150.147l-22.838,78.735Zm-1304.13,-191.04c-17.325,-0 -33.075,-7.121 -47.251,-21.362c-11.025,-14.242 -14.963,-27.263 -11.813,-39.063l23.626,-73.852c3.15,-10.173 12.6,-19.532 28.351,-28.077c15.75,-9.358 32.288,-14.445 49.613,-15.258l318.945,-0c15.751,0.813 30.714,7.12 44.889,18.921c14.175,11.8 19.688,23.193 16.538,34.179l-18.901,58.594c-4.725,15.462 -15.75,30.314 -33.075,44.556c-15.751,14.241 -33.076,21.362 -51.977,21.362l-318.945,-0Zm1405.72,-130.615l210.268,-169.678l31.501,-69.58l-160.654,-0l-81.115,239.258Z" style="fill:#ffccd5;"/></svg>