<?xml version="1.0" encoding="UTF-8" standalone="no"?><!DOCTYPE svg PUBLIC "-//W3C//DTD SVG 1.1//EN" "http://www.w3.org/Graphics/SVG/1.1/DTD/svg11.dtd"><svg width="100%" height="100%" viewBox="0 0 3001 3001" version="1.1" xmlns="http://www.w3.org/2000/svg" xmlns:xlink="http://www.w3.org/1999/xlink" xml:space="preserve" xmlns:serif="http://www.serif.com/" style="fill-rule:evenodd;clip-rule:evenodd;stroke-linejoin:round;stroke-miterlimit:2;"><rect id="minusfiveblue" x="0.238" y="0.815" width="3000" height="3000" style="fill:none;"/><path d="M1500.24,0.815c827.873,-0 1500,672.127 1500,1500c0,827.872 -672.127,1500 -1500,1500c-827.872,-0 -1500,-672.128 -1500,-1500c0,-827.873 672.128,-1500 1500,-1500Zm481.306,1373.43c63.001,2.442 99.752,16.276 110.252,41.504c7.35,27.262 3.675,61.239 -11.025,101.929l-108.678,332.641c-10.5,35.808 -30.188,62.053 -59.063,78.736c-30.976,17.903 -65.89,26.855 -104.74,26.855l-416.598,0c-52.501,0 -86.889,-11.393 -103.165,-34.179c-15.75,-22.787 -19.688,-50.863 -11.813,-84.229l44.889,-159.302l272.481,0l-24.413,101.929l156.717,0l81.902,-237.427l-439.436,0l158.291,-498.657l705.617,0l-57.489,177.002l-423.685,-0l-52.764,153.198l282.72,0Zm-1153.71,215.454c-17.326,0 -33.076,-7.12 -47.251,-21.362c-11.026,-14.242 -14.963,-27.262 -11.813,-39.062l23.625,-73.853c3.15,-10.173 12.601,-19.531 28.351,-28.076c15.75,-9.359 32.288,-14.445 49.614,-15.259l318.945,0c15.75,0.814 30.713,7.121 44.888,18.921c14.176,11.8 19.688,23.193 16.538,34.18l-18.9,58.593c-4.725,15.463 -15.751,30.314 -33.076,44.556c-15.75,14.242 -33.076,21.362 -51.976,21.362l-318.945,0Z" style="fill:url(#_Linear1);"/><defs><linearGradient id="_Linear1" x1="0" y1="0" x2="1" y2="0" gradientUnits="userSpaceOnUse" gradientTransform="matrix(2e-06,0,0,2e-06,14762.5,2716.83)"><stop offset="0" style="stop-color:#a9d6e5;stop-opacity:1"/><stop offset="1" style="stop-color:#26b5e5;stop-opacity:1"/></linearGradient></defs></svg>