<?xml version="1.0" encoding="UTF-8" standalone="no"?><!DOCTYPE svg PUBLIC "-//W3C//DTD SVG 1.1//EN" "http://www.w3.org/Graphics/SVG/1.1/DTD/svg11.dtd"><svg width="100%" height="100%" viewBox="0 0 3001 3001" version="1.1" xmlns="http://www.w3.org/2000/svg" xmlns:xlink="http://www.w3.org/1999/xlink" xml:space="preserve" xmlns:serif="http://www.serif.com/" style="fill-rule:evenodd;clip-rule:evenodd;stroke-linejoin:round;stroke-miterlimit:2;"><rect id="minustwentyblue" x="0.437" y="0.815" width="3000" height="3000" style="fill:none;"/><path d="M1500.44,0.815c827.873,-0 1500,672.127 1500,1500c0,827.872 -672.127,1500 -1500,1500c-827.872,-0 -1500,-672.128 -1500,-1500c0,-827.873 672.128,-1500 1500,-1500Zm401.151,1153.7c15.75,-46.387 38.588,-76.701 68.514,-90.943c33.076,-13.021 73.764,-19.124 122.065,-18.31l396.91,-0c34.651,-0.814 64.051,11.19 88.202,36.01c27.825,26.042 37.013,54.525 27.563,85.45l-208.693,659.179c-4.725,11.801 -11.812,24.821 -21.263,39.063c-9.45,15.462 -21.525,29.907 -36.225,43.335c-15.226,14.241 -33.339,24.821 -54.339,31.738c-21.526,9.766 -46.726,15.259 -75.602,16.48l-409.51,-0c-48.826,-1.221 -83.739,-12.004 -104.74,-32.349c-22.575,-20.345 -28.613,-46.59 -18.113,-78.735l225.231,-690.918Zm-110.253,12.207l-59.851,196.533l-542.601,418.091l407.147,-0l-58.276,175.171l-681.991,-0l66.151,-236.206l549.688,-408.936l33.076,-89.111l-129.153,-0l-27.563,89.111l-281.932,0l40.951,-149.536c4.2,-13.428 9.188,-27.262 14.963,-41.504c5.25,-14.242 14.7,-26.652 28.351,-37.231c13.65,-11.801 33.863,-21.973 60.639,-30.518c23.625,-5.697 57.751,-8.138 102.377,-7.324l356.746,-0c65.627,-0.814 105.528,8.138 119.703,26.855c15.225,21.566 15.75,53.101 1.575,94.605Zm194.517,614.624l150.416,-0l79.54,-228.882l-207.118,150.146l-22.838,78.736Zm-1533.3,-191.04c-17.325,-0 -33.076,-7.121 -47.251,-21.363c-11.025,-14.241 -14.963,-27.262 -11.813,-39.062l23.626,-73.853c3.15,-10.172 12.6,-19.531 28.35,-28.076c15.751,-9.359 32.289,-14.445 49.614,-15.259l318.945,0c15.751,0.814 30.714,7.121 44.889,18.921c14.175,11.8 19.688,23.194 16.538,34.18l-18.901,58.594c-4.725,15.462 -15.75,30.314 -33.076,44.555c-15.75,14.242 -33.075,21.363 -51.976,21.363l-318.945,-0Zm1634.89,-130.616l210.268,-169.677l31.5,-69.58l-160.653,-0l-81.115,239.257Z" style="fill:url(#_Linear1);"/><defs><linearGradient id="_Linear1" x1="0" y1="0" x2="1" y2="0" gradientUnits="userSpaceOnUse" gradientTransform="matrix(2e-06,0,0,2e-06,8078.51,2716.83)"><stop offset="0" style="stop-color:#a9d6e5;stop-opacity:1"/><stop offset="1" style="stop-color:#26b5e5;stop-opacity:1"/></linearGradient></defs></svg>