<?xml version="1.0" encoding="UTF-8" standalone="no"?><!DOCTYPE svg PUBLIC "-//W3C//DTD SVG 1.1//EN" "http://www.w3.org/Graphics/SVG/1.1/DTD/svg11.dtd"><svg width="100%" height="100%" viewBox="0 0 3000 3000" version="1.1" xmlns="http://www.w3.org/2000/svg" xmlns:xlink="http://www.w3.org/1999/xlink" xml:space="preserve" xmlns:serif="http://www.serif.com/" style="fill-rule:evenodd;clip-rule:evenodd;stroke-linejoin:round;stroke-miterlimit:2;"><rect id="Artboard1" x="0" y="0" width="3000" height="3000" style="fill:none;"/><path d="M1500,0c827.873,0 1500,672.127 1500,1500c0,827.873 -672.127,1500 -1500,1500c-827.873,0 -1500,-672.127 -1500,-1500c0,-827.873 672.127,-1500 1500,-1500Zm-391.487,1955.7l218.142,-736.084l-114.19,-0l171.679,-176.392l255.156,0l-274.844,912.476l-255.943,-0Zm678.053,-802.613c15.751,-46.386 38.589,-76.7 68.514,-90.942c33.076,-13.021 73.765,-19.124 122.066,-18.31l396.909,-0c34.651,-0.814 64.052,11.189 88.202,36.01c27.826,26.042 37.014,54.525 27.564,85.449l-208.693,659.18c-4.725,11.8 -11.813,24.821 -21.263,39.063c-9.45,15.462 -21.525,29.907 -36.226,43.335c-15.225,14.241 -33.338,24.821 -54.339,31.738c-21.525,9.766 -46.726,15.259 -75.601,16.479l-409.51,0c-48.826,-1.22 -83.74,-12.003 -104.74,-32.348c-22.576,-20.345 -28.613,-46.59 -18.113,-78.736l225.23,-690.918Zm84.265,626.831l150.416,0l79.539,-228.881l-207.117,150.146l-22.838,78.735Zm-1304.13,-191.04c-17.326,0 -33.076,-7.12 -47.251,-21.362c-11.026,-14.241 -14.963,-27.262 -11.813,-39.062l23.625,-73.853c3.15,-10.172 12.601,-19.531 28.351,-28.076c15.75,-9.359 32.288,-14.445 49.614,-15.259l318.945,0c15.75,0.814 30.713,7.121 44.888,18.921c14.176,11.8 19.688,23.193 16.538,34.18l-18.9,58.593c-4.725,15.463 -15.751,30.315 -33.076,44.556c-15.75,14.242 -33.076,21.362 -51.976,21.362l-318.945,0Zm1405.72,-130.615l210.267,-169.678l31.501,-69.58l-160.654,0l-81.114,239.258Z" style="fill:#d8f3dc;"/></svg>