<?xml version="1.0" encoding="UTF-8" standalone="no"?><!DOCTYPE svg PUBLIC "-//W3C//DTD SVG 1.1//EN" "http://www.w3.org/Graphics/SVG/1.1/DTD/svg11.dtd"><svg width="100%" height="100%" viewBox="0 0 3001 3001" version="1.1" xmlns="http://www.w3.org/2000/svg" xmlns:xlink="http://www.w3.org/1999/xlink" xml:space="preserve" xmlns:serif="http://www.serif.com/" style="fill-rule:evenodd;clip-rule:evenodd;stroke-linejoin:round;stroke-miterlimit:2;"><rect id="minusoneblue" x="0.878" y="0.815" width="3000" height="3000" style="fill:none;"/><path d="M1500.88,0.815c827.872,-0 1500,672.127 1500,1500c-0,827.872 -672.128,1500 -1500,1500c-827.873,-0 -1500,-672.128 -1500,-1500c-0,-827.873 672.127,-1500 1500,-1500Zm35.569,1955.09l218.143,-736.084l-114.19,0l171.679,-176.391l255.156,-0l-274.844,912.475l-255.944,0Zm-541.813,-366.821c-17.325,-0 -33.075,-7.121 -47.251,-21.362c-11.025,-14.242 -14.963,-27.263 -11.813,-39.063l23.626,-73.852c3.15,-10.173 12.6,-19.532 28.351,-28.077c15.75,-9.358 32.288,-14.445 49.613,-15.258l318.945,-0c15.751,0.813 30.714,7.12 44.889,18.921c14.175,11.8 19.688,23.193 16.538,34.179l-18.901,58.594c-4.725,15.462 -15.75,30.314 -33.075,44.556c-15.751,14.241 -33.076,21.362 -51.977,21.362l-318.945,-0Z" style="fill:url(#_Linear1);"/><defs><linearGradient id="_Linear1" x1="0" y1="0" x2="1" y2="0" gradientUnits="userSpaceOnUse" gradientTransform="matrix(2e-06,0,0,2e-06,18125.5,2716.83)"><stop offset="0" style="stop-color:#a9d6e5;stop-opacity:1"/><stop offset="1" style="stop-color:#26b5e5;stop-opacity:1"/></linearGradient></defs></svg>