<?xml version="1.0" encoding="UTF-8" standalone="no"?><!DOCTYPE svg PUBLIC "-//W3C//DTD SVG 1.1//EN" "http://www.w3.org/Graphics/SVG/1.1/DTD/svg11.dtd"><svg width="100%" height="100%" viewBox="0 0 3001 3001" version="1.1" xmlns="http://www.w3.org/2000/svg" xmlns:xlink="http://www.w3.org/1999/xlink" xml:space="preserve" xmlns:serif="http://www.serif.com/" style="fill-rule:evenodd;clip-rule:evenodd;stroke-linejoin:round;stroke-miterlimit:2;"><rect id="minustenblue" x="0.599" y="0.815" width="3000" height="3000" style="fill:none;"/><path d="M1500.6,0.815c827.873,-0 1500,672.127 1500,1500c0,827.872 -672.127,1500 -1500,1500c-827.872,-0 -1500,-672.128 -1500,-1500c0,-827.873 672.128,-1500 1500,-1500Zm-391.487,1955.7l218.143,-736.084l-114.191,-0l171.679,-176.392l255.157,0l-274.845,912.476l-255.943,-0Zm678.054,-802.613c15.75,-46.386 38.588,-76.701 68.514,-90.942c33.075,-13.021 73.764,-19.124 122.065,-18.311l396.91,0c34.65,-0.813 64.051,11.19 88.202,36.011c27.825,26.042 37.013,54.525 27.563,85.449l-208.693,659.18c-4.725,11.8 -11.812,24.821 -21.263,39.063c-9.45,15.462 -21.525,29.907 -36.226,43.334c-15.225,14.242 -33.338,24.821 -54.338,31.739c-21.526,9.765 -46.726,15.259 -75.602,16.479l-409.51,0c-48.826,-1.22 -83.739,-12.003 -104.74,-32.348c-22.575,-20.345 -28.613,-46.591 -18.113,-78.736l225.231,-690.918Zm84.264,626.831l150.416,0l79.54,-228.881l-207.118,150.146l-22.838,78.735Zm-1304.13,-191.04c-17.325,0 -33.076,-7.12 -47.251,-21.362c-11.025,-14.242 -14.963,-27.262 -11.813,-39.062l23.626,-73.853c3.15,-10.173 12.6,-19.531 28.35,-28.076c15.751,-9.359 32.289,-14.445 49.614,-15.259l318.945,0c15.75,0.814 30.713,7.121 44.889,18.921c14.175,11.8 19.688,23.193 16.538,34.18l-18.901,58.593c-4.725,15.463 -15.75,30.314 -33.076,44.556c-15.75,14.242 -33.076,21.362 -51.976,21.362l-318.945,0Zm1405.72,-130.615l210.267,-169.678l31.501,-69.58l-160.654,0l-81.114,239.258Z" style="fill:url(#_Linear1);"/><defs><linearGradient id="_Linear1" x1="0" y1="0" x2="1" y2="0" gradientUnits="userSpaceOnUse" gradientTransform="matrix(2e-06,0,0,2e-06,11400.5,2716.83)"><stop offset="0" style="stop-color:#a9d6e5;stop-opacity:1"/><stop offset="1" style="stop-color:#26b5e5;stop-opacity:1"/></linearGradient></defs></svg>