<?xml version="1.0" encoding="UTF-8" standalone="no"?><!DOCTYPE svg PUBLIC "-//W3C//DTD SVG 1.1//EN" "http://www.w3.org/Graphics/SVG/1.1/DTD/svg11.dtd"><svg width="100%" height="100%" viewBox="0 0 3000 3000" version="1.1" xmlns="http://www.w3.org/2000/svg" xmlns:xlink="http://www.w3.org/1999/xlink" xml:space="preserve" xmlns:serif="http://www.serif.com/" style="fill-rule:evenodd;clip-rule:evenodd;stroke-linejoin:round;stroke-miterlimit:2;"><rect id="Artboard1" x="0" y="0" width="3000" height="3000" style="fill:none;"/><path d="M1500,0c827.873,0 1500,672.127 1500,1500c0,827.873 -672.127,1500 -1500,1500c-827.873,0 -1500,-672.127 -1500,-1500c0,-827.873 672.127,-1500 1500,-1500Zm401.15,1153.7c15.751,-46.387 38.589,-76.701 68.514,-90.943c33.076,-13.02 73.765,-19.124 122.066,-18.31l396.909,-0c34.651,-0.814 64.052,11.19 88.202,36.011c27.826,26.041 37.014,54.524 27.563,85.449l-208.692,659.18c-4.725,11.8 -11.813,24.82 -21.263,39.062c-9.45,15.462 -21.525,29.907 -36.226,43.335c-15.225,14.241 -33.338,24.821 -54.339,31.738c-21.525,9.766 -46.726,15.259 -75.601,16.48l-409.51,-0c-48.826,-1.221 -83.74,-12.004 -104.74,-32.349c-22.576,-20.345 -28.613,-46.59 -18.113,-78.735l225.23,-690.918Zm-110.252,12.207l-59.852,196.533l-542.6,418.091l407.147,-0l-58.276,175.171l-681.992,-0l66.152,-236.206l549.688,-408.936l33.076,-89.111l-129.153,-0l-27.563,89.111l-281.932,0l40.951,-149.536c4.2,-13.428 9.188,-27.262 14.963,-41.504c5.25,-14.241 14.7,-26.652 28.35,-37.231c13.651,-11.8 33.864,-21.973 60.639,-30.518c23.626,-5.697 57.752,-8.138 102.378,-7.324l356.746,-0c65.626,-0.814 105.527,8.138 119.703,26.855c15.225,21.566 15.75,53.101 1.575,94.605Zm194.517,614.624l150.416,-0l79.539,-228.882l-207.117,150.146l-22.838,78.736Zm-1533.3,-191.04c-17.326,-0 -33.076,-7.121 -47.251,-21.363c-11.026,-14.241 -14.963,-27.262 -11.813,-39.062l23.625,-73.853c3.15,-10.172 12.601,-19.531 28.351,-28.076c15.75,-9.358 32.288,-14.445 49.614,-15.259l318.945,0c15.75,0.814 30.713,7.121 44.888,18.921c14.176,11.801 19.688,23.194 16.538,34.18l-18.9,58.594c-4.725,15.462 -15.751,30.314 -33.076,44.555c-15.75,14.242 -33.076,21.363 -51.976,21.363l-318.945,-0Zm1634.89,-130.615l210.267,-169.678l31.501,-69.58l-160.654,-0l-81.114,239.258Z" style="fill:#d8f3dc;"/></svg>