<?xml version="1.0" encoding="UTF-8" standalone="no"?><!DOCTYPE svg PUBLIC "-//W3C//DTD SVG 1.1//EN" "http://www.w3.org/Graphics/SVG/1.1/DTD/svg11.dtd"><svg width="100%" height="100%" viewBox="0 0 3001 3001" version="1.1" xmlns="http://www.w3.org/2000/svg" xmlns:xlink="http://www.w3.org/1999/xlink" xml:space="preserve" xmlns:serif="http://www.serif.com/" style="fill-rule:evenodd;clip-rule:evenodd;stroke-linejoin:round;stroke-miterlimit:2;"><rect id="minustwentyred" x="0.56" y="0.21" width="3000" height="3000" style="fill:none;"/><path d="M1500.56,0.21c827.872,-0 1500,672.127 1500,1500c-0,827.872 -672.128,1500 -1500,1500c-827.873,-0 -1500,-672.128 -1500,-1500c-0,-827.873 672.127,-1500 1500,-1500Zm401.15,1153.7c15.75,-46.386 38.588,-76.701 68.514,-90.942c33.076,-13.021 73.764,-19.124 122.066,-18.311l396.909,0c34.651,-0.813 64.052,11.19 88.202,36.011c27.826,26.042 37.014,54.525 27.563,85.449l-208.692,659.18c-4.725,11.8 -11.813,24.821 -21.263,39.063c-9.45,15.462 -21.526,29.907 -36.226,43.334c-15.225,14.242 -33.338,24.821 -54.339,31.739c-21.525,9.765 -46.726,15.259 -75.602,16.479l-409.509,0c-48.827,-1.22 -83.74,-12.003 -104.74,-32.348c-22.576,-20.345 -28.614,-46.591 -18.113,-78.736l225.23,-690.918Zm-110.253,12.207l-59.851,196.534l-542.6,418.09l407.147,0l-58.277,175.171l-681.991,0l66.152,-236.206l549.688,-408.935l33.076,-89.112l-129.153,0l-27.564,89.112l-281.931,-0l40.951,-149.536c4.2,-13.428 9.187,-27.263 14.962,-41.504c5.251,-14.242 14.701,-26.652 28.351,-37.232c13.65,-11.8 33.863,-21.972 60.639,-30.517c23.626,-5.697 57.751,-8.138 102.378,-7.325l356.746,0c65.626,-0.813 105.527,8.138 119.702,26.856c15.226,21.566 15.751,53.1 1.575,94.604Zm194.518,614.624l150.416,0l79.539,-228.881l-207.117,150.146l-22.838,78.735Zm-1533.3,-191.04c-17.326,0 -33.076,-7.12 -47.252,-21.362c-11.025,-14.242 -14.962,-27.262 -11.812,-39.062l23.625,-73.853c3.15,-10.173 12.6,-19.531 28.351,-28.076c15.75,-9.359 32.288,-14.445 49.614,-15.259l318.945,0c15.75,0.814 30.713,7.121 44.888,18.921c14.176,11.8 19.688,23.193 16.538,34.18l-18.9,58.593c-4.725,15.463 -15.751,30.314 -33.076,44.556c-15.751,14.242 -33.076,21.362 -51.976,21.362l-318.945,0Zm1634.89,-130.615l210.267,-169.678l31.501,-69.58l-160.654,0l-81.114,239.258Z" style="fill:#ffccd5;"/></svg>