<?xml version="1.0" encoding="UTF-8" standalone="no"?><!DOCTYPE svg PUBLIC "-//W3C//DTD SVG 1.1//EN" "http://www.w3.org/Graphics/SVG/1.1/DTD/svg11.dtd"><svg width="100%" height="100%" viewBox="0 0 3001 3001" version="1.1" xmlns="http://www.w3.org/2000/svg" xmlns:xlink="http://www.w3.org/1999/xlink" xml:space="preserve" xmlns:serif="http://www.serif.com/" style="fill-rule:evenodd;clip-rule:evenodd;stroke-linejoin:round;stroke-miterlimit:2;"><rect id="minusfivered" x="0.361" y="0.21" width="3000" height="3000" style="fill:none;"/><path d="M1500.36,0.21c827.872,-0 1500,672.127 1500,1500c-0,827.872 -672.128,1500 -1500,1500c-827.873,-0 -1500,-672.128 -1500,-1500c-0,-827.873 672.127,-1500 1500,-1500Zm481.305,1373.43c63.002,2.441 99.752,16.276 110.253,41.504c7.35,27.262 3.675,61.238 -11.026,101.928l-108.677,332.642c-10.5,35.807 -30.188,62.052 -59.064,78.735c-30.976,17.904 -65.889,26.856 -104.74,26.856l-416.598,-0c-52.501,-0 -86.889,-11.393 -103.164,-34.18c-15.751,-22.786 -19.688,-50.862 -11.813,-84.228l44.888,-159.302l272.482,-0l-24.413,101.929l156.716,-0l81.902,-237.427l-439.436,-0l158.292,-498.657l705.617,-0l-57.489,177.002l-423.685,-0l-52.764,153.198l282.719,-0Zm-1153.71,215.454c-17.325,-0 -33.076,-7.121 -47.251,-21.362c-11.025,-14.242 -14.963,-27.263 -11.813,-39.063l23.626,-73.852c3.15,-10.173 12.6,-19.532 28.35,-28.077c15.751,-9.358 32.289,-14.445 49.614,-15.258l318.945,-0c15.751,0.813 30.713,7.12 44.889,18.921c14.175,11.8 19.688,23.193 16.538,34.179l-18.901,58.594c-4.725,15.462 -15.75,30.314 -33.076,44.556c-15.75,14.241 -33.075,21.362 -51.976,21.362l-318.945,-0Z" style="fill:#ffccd5;"/></svg>