<?xml version="1.0" encoding="UTF-8" standalone="no"?><!DOCTYPE svg PUBLIC "-//W3C//DTD SVG 1.1//EN" "http://www.w3.org/Graphics/SVG/1.1/DTD/svg11.dtd"><svg width="100%" height="100%" viewBox="0 0 3000 3001" version="1.1" xmlns="http://www.w3.org/2000/svg" xmlns:xlink="http://www.w3.org/1999/xlink" xml:space="preserve" xmlns:serif="http://www.serif.com/" style="fill-rule:evenodd;clip-rule:evenodd;stroke-linejoin:round;stroke-miterlimit:2;"><rect id="minusonered" x="0" y="0.21" width="3000" height="3000" style="fill:none;"/><path d="M1500,0.21c827.873,-0 1500,672.127 1500,1500c0,827.872 -672.127,1500 -1500,1500c-827.873,-0 -1500,-672.128 -1500,-1500c0,-827.873 672.127,-1500 1500,-1500Zm35.57,1955.09l218.142,-736.084l-114.19,-0l171.679,-176.392l255.156,0l-274.844,912.476l-255.943,-0Zm-541.813,-366.821c-17.326,-0 -33.076,-7.121 -47.251,-21.363c-11.026,-14.241 -14.963,-27.262 -11.813,-39.062l23.625,-73.853c3.15,-10.172 12.601,-19.531 28.351,-28.076c15.75,-9.359 32.288,-14.445 49.614,-15.259l318.945,0c15.75,0.814 30.713,7.121 44.888,18.921c14.176,11.8 19.688,23.194 16.538,34.18l-18.9,58.594c-4.725,15.462 -15.751,30.314 -33.076,44.555c-15.75,14.242 -33.076,21.363 -51.976,21.363l-318.945,-0Z" style="fill:#ffccd5;"/></svg>