<?xml version="1.0" encoding="UTF-8" standalone="no"?><!DOCTYPE svg PUBLIC "-//W3C//DTD SVG 1.1//EN" "http://www.w3.org/Graphics/SVG/1.1/DTD/svg11.dtd"><svg width="100%" height="100%" viewBox="0 0 3000 3000" version="1.1" xmlns="http://www.w3.org/2000/svg" xmlns:xlink="http://www.w3.org/1999/xlink" xml:space="preserve" xmlns:serif="http://www.serif.com/" style="fill-rule:evenodd;clip-rule:evenodd;stroke-linejoin:round;stroke-miterlimit:2;"><rect id="Artboard1" x="0" y="0" width="3000" height="3000" style="fill:none;"/><path d="M1500,0c827.873,0 1500,672.127 1500,1500c0,827.873 -672.127,1500 -1500,1500c-827.873,0 -1500,-672.127 -1500,-1500c0,-827.873 672.127,-1500 1500,-1500Zm481.305,1373.43c63.002,2.442 99.753,16.276 110.253,41.504c7.35,27.263 3.675,61.239 -11.025,101.929l-108.678,332.642c-10.5,35.807 -30.188,62.052 -59.064,78.735c-30.976,17.904 -65.889,26.855 -104.74,26.855l-416.597,0c-52.502,0 -86.89,-11.393 -103.165,-34.179c-15.751,-22.787 -19.688,-50.863 -11.813,-84.229l44.888,-159.302l272.482,0l-24.413,101.929l156.716,0l81.902,-237.427l-439.435,0l158.291,-498.657l705.617,0l-57.489,177.002l-423.685,0l-52.764,153.198l282.719,0Zm-1153.71,215.454c-17.325,0 -33.076,-7.12 -47.251,-21.362c-11.025,-14.241 -14.963,-27.262 -11.813,-39.062l23.626,-73.853c3.15,-10.172 12.6,-19.531 28.351,-28.076c15.75,-9.359 32.288,-14.445 49.613,-15.259l318.945,0c15.751,0.814 30.714,7.121 44.889,18.921c14.175,11.8 19.688,23.193 16.538,34.18l-18.901,58.593c-4.725,15.463 -15.75,30.315 -33.075,44.556c-15.751,14.242 -33.076,21.362 -51.977,21.362l-318.945,0Z" style="fill:#d8f3dc;"/></svg>