<?xml version="1.0" encoding="UTF-8" standalone="no"?><!DOCTYPE svg PUBLIC "-//W3C//DTD SVG 1.1//EN" "http://www.w3.org/Graphics/SVG/1.1/DTD/svg11.dtd"><svg width="100%" height="100%" viewBox="0 0 3001 3001" version="1.1" xmlns="http://www.w3.org/2000/svg" xmlns:xlink="http://www.w3.org/1999/xlink" xml:space="preserve" xmlns:serif="http://www.serif.com/" style="fill-rule:evenodd;clip-rule:evenodd;stroke-linejoin:round;stroke-miterlimit:2;"><rect id="plustenblue" x="0.599" y="0.843" width="3000" height="3000" style="fill:none;"/><path d="M1500.6,0.843c827.873,0 1500,672.128 1500,1500c0,827.873 -672.127,1500 -1500,1500c-827.872,0 -1500,-672.127 -1500,-1500c0,-827.872 672.128,-1500 1500,-1500Zm-415.191,1956.85l218.142,-736.084l-114.19,0l171.679,-176.391l255.156,-0l-274.844,912.475l-255.943,0Zm678.053,-802.612c15.751,-46.387 38.589,-76.701 68.514,-90.942c33.076,-13.021 73.765,-19.125 122.066,-18.311l396.909,0c34.651,-0.814 64.052,11.19 88.202,36.011c27.826,26.042 37.014,54.525 27.563,85.449l-208.692,659.18c-4.725,11.8 -11.813,24.821 -21.263,39.062c-9.45,15.463 -21.526,29.908 -36.226,43.335c-15.225,14.242 -33.338,24.821 -54.339,31.739c-21.525,9.765 -46.726,15.258 -75.601,16.479l-409.51,0c-48.826,-1.221 -83.74,-12.003 -104.74,-32.349c-22.576,-20.345 -28.613,-46.59 -18.113,-78.735l225.23,-690.918Zm84.265,626.831l150.416,0l79.539,-228.882l-207.117,150.147l-22.838,78.735Zm-1263.18,-197.143c-14.701,-0 -28.351,-6.918 -40.951,-20.752c-11.551,-13.835 -15.226,-26.449 -11.026,-37.842l21.263,-70.801c2.625,-10.172 11.288,-19.328 25.988,-27.466c13.651,-8.952 27.826,-14.038 42.526,-15.258l83.477,-0l38.589,-134.888c2.1,-10.173 10.238,-20.345 24.413,-30.518c13.65,-11.8 28.876,-18.107 45.676,-18.921l88.202,0c11.55,0.814 20.738,8.138 27.563,21.973c9.976,11.393 13.388,22.38 10.238,32.959l-44.101,129.395l70.877,-0c22.575,1.22 39.638,4.069 51.188,8.544c12.601,4.476 14.176,18.718 4.726,42.725l-16.538,57.373c-4.2,13.428 -14.176,27.669 -29.926,42.725c-14.7,13.834 -30.713,20.752 -48.039,20.752l-79.539,-0l-40.951,115.356c-5.25,11.8 -14.7,25.025 -28.351,39.673c-12.075,11.393 -26.25,16.683 -42.526,15.869l-81.902,0c-15.75,0.814 -28.35,-6.714 -37.801,-22.583c-4.725,-18.31 -5.775,-33.162 -3.15,-44.556l34.651,-103.759l-64.576,-0Zm1364.77,-124.512l210.267,-169.678l31.501,-69.58l-160.654,0l-81.114,239.258Z" style="fill:url(#_Linear1);"/><defs><linearGradient id="_Linear1" x1="0" y1="0" x2="1" y2="0" gradientUnits="userSpaceOnUse" gradientTransform="matrix(2e-06,0,0,2e-06,11400.5,6003.83)"><stop offset="0" style="stop-color:#a9d6e5;stop-opacity:1"/><stop offset="1" style="stop-color:#26b5e5;stop-opacity:1"/></linearGradient></defs></svg>