<?xml version="1.0" encoding="UTF-8" standalone="no"?><!DOCTYPE svg PUBLIC "-//W3C//DTD SVG 1.1//EN" "http://www.w3.org/Graphics/SVG/1.1/DTD/svg11.dtd"><svg width="100%" height="100%" viewBox="0 0 3000 3000" version="1.1" xmlns="http://www.w3.org/2000/svg" xmlns:xlink="http://www.w3.org/1999/xlink" xml:space="preserve" xmlns:serif="http://www.serif.com/" style="fill-rule:evenodd;clip-rule:evenodd;stroke-linejoin:round;stroke-miterlimit:2;"><rect id="plusonegreen" x="0.003" y="0" width="3000" height="3000" style="fill:none;"/><path d="M1500,0c827.872,0 1500,672.127 1500,1500c-0,827.873 -672.128,1500 -1500,1500c-827.873,0 -1500,-672.127 -1500,-1500c-0,-827.873 672.127,-1500 1500,-1500Zm11.865,1956.24l218.143,-736.084l-114.191,-0l171.679,-176.392l255.157,0l-274.845,912.476l-255.943,-0Zm-500.862,-372.925c-14.7,-0 -28.351,-6.917 -40.951,-20.752c-11.55,-13.835 -15.225,-26.449 -11.025,-37.842l21.263,-70.801c2.625,-10.172 11.287,-19.327 25.988,-27.465c13.65,-8.952 27.825,-14.038 42.526,-15.259l83.477,-0l38.588,-134.888c2.1,-10.172 10.238,-20.345 24.413,-30.517c13.651,-11.801 28.876,-18.108 45.676,-18.921l88.202,-0c11.551,0.813 20.738,8.138 27.564,21.972c9.975,11.394 13.387,22.38 10.237,32.959l-44.101,129.395l70.877,-0c22.576,1.221 39.638,4.069 51.189,8.545c12.6,4.476 14.175,18.717 4.725,42.724l-16.538,57.373c-4.2,13.428 -14.175,27.67 -29.926,42.725c-14.7,13.835 -30.713,20.752 -48.038,20.752l-79.54,-0l-40.951,115.356c-5.25,11.801 -14.7,25.025 -28.35,39.673c-12.076,11.394 -26.251,16.683 -42.526,15.869l-81.902,0c-15.751,0.814 -28.351,-6.713 -37.801,-22.583c-4.725,-18.31 -5.775,-33.162 -3.15,-44.555l34.65,-103.76l-64.576,-0Z" style="fill:#d8f3dc;"/></svg>