<?xml version="1.0" encoding="UTF-8" standalone="no"?><!DOCTYPE svg PUBLIC "-//W3C//DTD SVG 1.1//EN" "http://www.w3.org/Graphics/SVG/1.1/DTD/svg11.dtd"><svg width="100%" height="100%" viewBox="0 0 3001 3001" version="1.1" xmlns="http://www.w3.org/2000/svg" xmlns:xlink="http://www.w3.org/1999/xlink" xml:space="preserve" xmlns:serif="http://www.serif.com/" style="fill-rule:evenodd;clip-rule:evenodd;stroke-linejoin:round;stroke-miterlimit:2;"><rect id="plusoneblue" x="0.247" y="0.843" width="3000" height="3000" style="fill:none;"/><path d="M1500.25,0.843c827.873,0 1500,672.128 1500,1500c0,827.873 -672.127,1500 -1500,1500c-827.872,0 -1500,-672.127 -1500,-1500c0,-827.872 672.128,-1500 1500,-1500Zm11.866,1956.24l218.142,-736.084l-114.19,0l171.679,-176.391l255.156,-0l-274.844,912.475l-255.943,0Zm-500.862,-372.925c-14.701,0 -28.351,-6.917 -40.951,-20.752c-11.551,-13.834 -15.226,-26.448 -11.026,-37.841l21.263,-70.801c2.625,-10.173 11.288,-19.328 25.989,-27.466c13.65,-8.952 27.825,-14.038 42.526,-15.259l83.477,0l38.588,-134.888c2.1,-10.172 10.238,-20.345 24.413,-30.517c13.65,-11.8 28.876,-18.107 45.676,-18.921l88.202,-0c11.551,0.814 20.738,8.138 27.563,21.973c9.976,11.393 13.388,22.379 10.238,32.959l-44.101,129.394l70.877,0c22.575,1.221 39.638,4.069 51.188,8.545c12.601,4.476 14.176,18.718 4.726,42.725l-16.538,57.373c-4.2,13.427 -14.176,27.669 -29.926,42.724c-14.7,13.835 -30.713,20.752 -48.039,20.752l-79.539,0l-40.951,115.357c-5.25,11.8 -14.7,25.024 -28.351,39.673c-12.075,11.393 -26.25,16.683 -42.526,15.869l-81.902,-0c-15.75,0.814 -28.35,-6.714 -37.801,-22.583c-4.725,-18.311 -5.775,-33.163 -3.15,-44.556l34.651,-103.76l-64.576,0Z" style="fill:url(#_Linear1);"/><defs><linearGradient id="_Linear1" x1="0" y1="0" x2="1" y2="0" gradientUnits="userSpaceOnUse" gradientTransform="matrix(2e-06,0,0,2e-06,18014.5,6003.83)"><stop offset="0" style="stop-color:#a9d6e5;stop-opacity:1"/><stop offset="1" style="stop-color:#26b5e5;stop-opacity:1"/></linearGradient></defs></svg>