<?xml version="1.0" encoding="UTF-8" standalone="no"?><!DOCTYPE svg PUBLIC "-//W3C//DTD SVG 1.1//EN" "http://www.w3.org/Graphics/SVG/1.1/DTD/svg11.dtd"><svg width="100%" height="100%" viewBox="0 0 3000 3000" version="1.1" xmlns="http://www.w3.org/2000/svg" xmlns:xlink="http://www.w3.org/1999/xlink" xml:space="preserve" xmlns:serif="http://www.serif.com/" style="fill-rule:evenodd;clip-rule:evenodd;stroke-linejoin:round;stroke-miterlimit:2;"><rect id="Artboard1" x="0" y="0" width="3000" height="3000" style="fill:none;"/><path d="M1500,0c827.873,0 1500,672.127 1500,1500c0,827.873 -672.127,1500 -1500,1500c-827.873,0 -1500,-672.127 -1500,-1500c0,-827.873 672.127,-1500 1500,-1500Zm457.601,1374.57c63.001,2.441 99.752,16.276 110.253,41.504c7.35,27.262 3.675,61.238 -11.026,101.928l-108.677,332.642c-10.501,35.807 -30.189,62.052 -59.064,78.735c-30.976,17.904 -65.889,26.856 -104.74,26.856l-416.598,-0c-52.501,-0 -86.889,-11.393 -103.165,-34.18c-15.75,-22.786 -19.688,-50.863 -11.812,-84.228l44.888,-159.302l272.482,-0l-24.413,101.929l156.716,-0l81.902,-237.427l-439.436,-0l158.292,-498.657l705.616,-0l-57.488,177.002l-423.686,-0l-52.763,153.198l282.719,-0Zm-1112.76,209.35c-14.7,0 -28.351,-6.917 -40.951,-20.752c-11.55,-13.834 -15.225,-26.448 -11.025,-37.841l21.263,-70.801c2.625,-10.173 11.287,-19.328 25.988,-27.466c13.65,-8.952 27.825,-14.038 42.526,-15.259l83.477,0l38.588,-134.887c2.1,-10.173 10.238,-20.346 24.413,-30.518c13.651,-11.8 28.876,-18.107 45.676,-18.921l88.202,0c11.551,0.814 20.738,8.138 27.564,21.973c9.975,11.393 13.387,22.379 10.237,32.959l-44.101,129.394l70.877,0c22.576,1.221 39.638,4.069 51.189,8.545c12.6,4.476 14.175,18.718 4.725,42.725l-16.538,57.373c-4.2,13.428 -14.175,27.669 -29.926,42.724c-14.7,13.835 -30.713,20.752 -48.038,20.752l-79.54,0l-40.951,115.357c-5.25,11.8 -14.7,25.024 -28.35,39.673c-12.076,11.393 -26.251,16.683 -42.526,15.869l-81.902,-0c-15.751,0.814 -28.351,-6.714 -37.801,-22.583c-4.725,-18.311 -5.775,-33.163 -3.15,-44.556l34.65,-103.76l-64.576,0Z" style="fill:#d8f3dc;"/></svg>