<?xml version="1.0" encoding="UTF-8" standalone="no"?><!DOCTYPE svg PUBLIC "-//W3C//DTD SVG 1.1//EN" "http://www.w3.org/Graphics/SVG/1.1/DTD/svg11.dtd"><svg width="100%" height="100%" viewBox="0 0 3001 3001" version="1.1" xmlns="http://www.w3.org/2000/svg" xmlns:xlink="http://www.w3.org/1999/xlink" xml:space="preserve" xmlns:serif="http://www.serif.com/" style="fill-rule:evenodd;clip-rule:evenodd;stroke-linejoin:round;stroke-miterlimit:2;"><rect id="plustwentyblue" x="0.437" y="0.843" width="3000" height="3000" style="fill:none;"/><path d="M1500.44,0.843c827.873,0 1500,672.128 1500,1500c0,827.873 -672.127,1500 -1500,1500c-827.872,0 -1500,-672.127 -1500,-1500c0,-827.872 672.128,-1500 1500,-1500Zm377.446,1153.7c15.751,-46.387 38.589,-76.701 68.515,-90.942c33.075,-13.021 73.764,-19.125 122.065,-18.311l396.909,0c34.651,-0.814 64.052,11.19 88.202,36.011c27.826,26.042 37.014,54.525 27.564,85.449l-208.693,659.18c-4.725,11.8 -11.813,24.821 -21.263,39.062c-9.45,15.463 -21.525,29.908 -36.226,43.335c-15.225,14.242 -33.338,24.821 -54.338,31.739c-21.526,9.765 -46.727,15.258 -75.602,16.479l-409.51,0c-48.826,-1.221 -83.74,-12.004 -104.74,-32.349c-22.576,-20.345 -28.613,-46.59 -18.113,-78.735l225.23,-690.918Zm-110.252,12.207l-59.852,196.533l-542.6,418.091l407.147,0l-58.276,175.171l-681.992,0l66.152,-236.206l549.688,-408.936l33.076,-89.111l-129.153,0l-27.563,89.111l-281.932,0l40.951,-149.536c4.2,-13.427 9.188,-27.262 14.963,-41.504c5.25,-14.241 14.7,-26.652 28.35,-37.231c13.651,-11.8 33.864,-21.973 60.639,-30.518c23.626,-5.696 57.752,-8.138 102.378,-7.324l356.746,0c65.626,-0.814 105.527,8.138 119.703,26.856c15.225,21.565 15.75,53.1 1.575,94.604Zm194.517,614.624l150.416,0l79.539,-228.882l-207.117,150.147l-22.838,78.735Zm-1492.35,-197.143c-14.701,-0 -28.351,-6.918 -40.951,-20.752c-11.55,-13.835 -15.226,-26.449 -11.025,-37.842l21.263,-70.801c2.625,-10.172 11.287,-19.328 25.988,-27.466c13.65,-8.952 27.825,-14.038 42.526,-15.259l83.477,0l38.588,-134.887c2.1,-10.173 10.238,-20.345 24.413,-30.518c13.651,-11.8 28.876,-18.107 45.676,-18.921l88.202,0c11.551,0.814 20.738,8.138 27.564,21.973c9.975,11.393 13.387,22.38 10.237,32.959l-44.101,129.394l70.877,0c22.575,1.221 39.638,4.069 51.189,8.545c12.6,4.476 14.175,18.718 4.725,42.725l-16.538,57.373c-4.2,13.428 -14.175,27.669 -29.926,42.725c-14.7,13.834 -30.713,20.752 -48.038,20.752l-79.54,-0l-40.951,115.356c-5.25,11.8 -14.7,25.024 -28.351,39.673c-12.075,11.393 -26.25,16.683 -42.526,15.869l-81.901,0c-15.751,0.814 -28.351,-6.714 -37.801,-22.583c-4.726,-18.311 -5.776,-33.162 -3.15,-44.556l34.65,-103.759l-64.576,-0Zm1593.94,-124.512l210.267,-169.678l31.501,-69.58l-160.654,0l-81.114,239.258Z" style="fill:url(#_Linear1);"/><defs><linearGradient id="_Linear1" x1="0" y1="0" x2="1" y2="0" gradientUnits="userSpaceOnUse" gradientTransform="matrix(2e-06,0,0,2e-06,8078.51,6003.83)"><stop offset="0" style="stop-color:#a9d6e5;stop-opacity:1"/><stop offset="1" style="stop-color:#26b5e5;stop-opacity:1"/></linearGradient></defs></svg>