<?xml version="1.0" encoding="UTF-8" standalone="no"?><!DOCTYPE svg PUBLIC "-//W3C//DTD SVG 1.1//EN" "http://www.w3.org/Graphics/SVG/1.1/DTD/svg11.dtd"><svg width="100%" height="100%" viewBox="0 0 3001 3001" version="1.1" xmlns="http://www.w3.org/2000/svg" xmlns:xlink="http://www.w3.org/1999/xlink" xml:space="preserve" xmlns:serif="http://www.serif.com/" style="fill-rule:evenodd;clip-rule:evenodd;stroke-linejoin:round;stroke-miterlimit:2;"><rect id="plusfiveblue" x="0.238" y="0.843" width="3000" height="3000" style="fill:none;"/><path d="M1500.24,0.843c827.873,0 1500,672.128 1500,1500c0,827.873 -672.127,1500 -1500,1500c-827.872,0 -1500,-672.127 -1500,-1500c0,-827.872 672.128,-1500 1500,-1500Zm457.601,1374.57c63.002,2.441 99.753,16.276 110.253,41.504c7.35,27.262 3.675,61.239 -11.025,101.929l-108.678,332.641c-10.5,35.808 -30.188,62.053 -59.064,78.736c-30.976,17.903 -65.889,26.855 -104.74,26.855l-416.597,0c-52.501,0 -86.89,-11.393 -103.165,-34.18c-15.751,-22.786 -19.688,-50.862 -11.813,-84.228l44.889,-159.302l272.481,0l-24.413,101.929l156.716,-0l81.902,-237.427l-439.435,0l158.291,-498.657l705.617,-0l-57.489,177.002l-423.685,-0l-52.764,153.198l282.719,0Zm-1112.76,209.351c-14.7,-0 -28.35,-6.918 -40.951,-20.752c-11.55,-13.835 -15.225,-26.449 -11.025,-37.842l21.263,-70.801c2.625,-10.172 11.288,-19.328 25.988,-27.466c13.651,-8.952 27.826,-14.038 42.526,-15.258l83.477,-0l38.589,-134.888c2.1,-10.173 10.237,-20.345 24.413,-30.518c13.65,-11.8 28.875,-18.107 45.676,-18.921l88.202,0c11.55,0.814 20.738,8.138 27.563,21.973c9.975,11.393 13.388,22.38 10.238,32.959l-44.101,129.395l70.876,-0c22.576,1.22 39.639,4.069 51.189,8.544c12.6,4.476 14.176,18.718 4.725,42.725l-16.538,57.373c-4.2,13.428 -14.175,27.669 -29.925,42.725c-14.701,13.834 -30.714,20.752 -48.039,20.752l-79.539,-0l-40.951,115.356c-5.25,11.8 -14.701,25.025 -28.351,39.673c-12.075,11.393 -26.251,16.683 -42.526,15.869l-81.902,0c-15.75,0.814 -28.351,-6.714 -37.801,-22.583c-4.725,-18.31 -5.775,-33.162 -3.15,-44.556l34.651,-103.759l-64.577,-0Z" style="fill:url(#_Linear1);"/><defs><linearGradient id="_Linear1" x1="0" y1="0" x2="1" y2="0" gradientUnits="userSpaceOnUse" gradientTransform="matrix(2e-06,0,0,2e-06,14762.5,6003.83)"><stop offset="0" style="stop-color:#a9d6e5;stop-opacity:1"/><stop offset="1" style="stop-color:#26b5e5;stop-opacity:1"/></linearGradient></defs></svg>