<?xml version="1.0" encoding="UTF-8" standalone="no"?><!DOCTYPE svg PUBLIC "-//W3C//DTD SVG 1.1//EN" "http://www.w3.org/Graphics/SVG/1.1/DTD/svg11.dtd"><svg width="100%" height="100%" viewBox="0 0 3000 3000" version="1.1" xmlns="http://www.w3.org/2000/svg" xmlns:xlink="http://www.w3.org/1999/xlink" xml:space="preserve" xmlns:serif="http://www.serif.com/" style="fill-rule:evenodd;clip-rule:evenodd;stroke-linejoin:round;stroke-miterlimit:2;"><rect id="Artboard1" x="0" y="0" width="3000" height="3000" style="fill:none;"/><path d="M1500,0c827.873,0 1500,672.127 1500,1500c0,827.873 -672.127,1500 -1500,1500c-827.873,0 -1500,-672.127 -1500,-1500c0,-827.873 672.127,-1500 1500,-1500Zm-415.192,1956.85l218.143,-736.084l-114.19,0l171.679,-176.391l255.156,-0l-274.844,912.475l-255.944,0Zm678.054,-802.612c15.75,-46.387 38.588,-76.701 68.514,-90.943c33.076,-13.02 73.764,-19.124 122.065,-18.31l396.91,-0c34.651,-0.814 64.051,11.19 88.202,36.011c27.826,26.041 37.013,54.524 27.563,85.449l-208.692,659.18c-4.725,11.8 -11.813,24.821 -21.263,39.062c-9.451,15.462 -21.526,29.907 -36.226,43.335c-15.226,14.242 -33.338,24.821 -54.339,31.738c-21.525,9.766 -46.726,15.259 -75.602,16.48l-409.51,-0c-48.826,-1.221 -83.739,-12.004 -104.74,-32.349c-22.575,-20.345 -28.613,-46.59 -18.112,-78.735l225.23,-690.918Zm84.264,626.831l150.417,-0l79.539,-228.882l-207.118,150.147l-22.838,78.735Zm-1263.18,-197.144c-14.7,0 -28.35,-6.917 -40.951,-20.752c-11.55,-13.834 -15.225,-26.448 -11.025,-37.841l21.263,-70.801c2.625,-10.173 11.288,-19.328 25.988,-27.466c13.651,-8.952 27.826,-14.038 42.526,-15.259l83.477,0l38.589,-134.887c2.1,-10.173 10.237,-20.346 24.413,-30.518c13.65,-11.8 28.875,-18.107 45.676,-18.921l88.202,0c11.55,0.814 20.738,8.138 27.563,21.973c9.975,11.393 13.388,22.379 10.238,32.959l-44.101,129.394l70.876,0c22.576,1.221 39.639,4.069 51.189,8.545c12.6,4.476 14.176,18.718 4.725,42.725l-16.538,57.373c-4.2,13.428 -14.175,27.669 -29.925,42.724c-14.701,13.835 -30.714,20.752 -48.039,20.752l-79.539,0l-40.951,115.357c-5.25,11.8 -14.701,25.024 -28.351,39.673c-12.075,11.393 -26.251,16.683 -42.526,15.869l-81.902,-0c-15.75,0.814 -28.351,-6.714 -37.801,-22.583c-4.725,-18.311 -5.775,-33.163 -3.15,-44.556l34.651,-103.76l-64.577,0Zm1364.77,-124.511l210.268,-169.678l31.501,-69.58l-160.654,-0l-81.115,239.258Z" style="fill:#d8f3dc;"/></svg>