<svg viewBox="0 0 2400 2134" xmlns="http://www.w3.org/2000/svg" xml:space="preserve" style="fill-rule:evenodd;clip-rule:evenodd;stroke-linejoin:round;stroke-miterlimit:2"><path d="M600 1000c0-184.167 149.167-333.333 333.333-333.333 184.167 0 333.334 149.166 333.334 333.333 0 184.167-149.167 333.333-333.334 333.333C749.167 1333.333 600 1184.167 600 1000ZM2133.33 0c147.084 0 266.667 119.375 266.667 266.667v1466.67c0 147.084-119.583 266.667-266.667 266.667h-66.666l-66.667 133.333H1733.33l-66.666-133.333H733.33l-66.666 133.333H399.997l-66.667-133.333h-66.666c-147.292 0-266.667-119.583-266.667-266.667V266.667C-.003 119.375 119.372 0 266.664 0h1866.67Zm-1200 1666.67c368.334 0 666.667-298.334 666.667-666.667S1301.664 333.336 933.33 333.336c-368.333 0-666.666 298.334-666.666 666.667S564.997 1666.67 933.33 1666.67ZM2000 922.086c77.5-27.5 133.333-101.666 133.333-188.75 0-110.416-89.583-200-200-200-110.416 0-200 89.584-200 200 0 87.084 55.834 161.25 133.334 188.75v477.917c0 36.667 30 66.667 66.666 66.667 36.667 0 66.667-30 66.667-66.667V922.086Z" style="fill:#fff;fill-rule:nonzero"/></svg>